<svg width="31" height="30" viewBox="0 0 31 30" fill="none" xmlns="http://www.w3.org/2000/svg">
<path d="M30.6984 22.2478V28.0844C30.6984 28.9509 30.0284 29.6699 29.1642 29.731C28.4422 29.782 27.8533 29.8074 27.3973 29.8074C12.8118 29.8074 0.988159 17.9837 0.988159 3.3983C0.988159 2.94227 1.01366 2.35328 1.06466 1.63137C1.12577 0.767101 1.84471 0.097168 2.71112 0.097168H8.54793C8.97159 0.097168 9.32643 0.418071 9.36897 0.839594C9.40716 1.21802 9.44267 1.52184 9.4755 1.75107C9.80937 4.08283 10.4914 6.30225 11.4671 8.35501C11.6237 8.6845 11.5216 9.07888 11.2247 9.29093L7.66231 11.8357C9.83111 16.9018 13.8938 20.9645 18.9599 23.1333L21.4999 19.577C21.7147 19.2766 22.1138 19.1733 22.4472 19.3316C24.4998 20.3066 26.719 20.9878 29.0505 21.3208C29.2782 21.3535 29.5801 21.3887 29.956 21.4266C30.3775 21.4692 30.6984 21.8241 30.6984 22.2478Z" fill="#F5BE32"/>
</svg>
